# xmcd
#
# Track frame offsets:
#	183
#	14838
#	27988
#	41625
#	56790
#	70598
#	82880
#	96750
#	110473
#	124173
#	138890
#	152808
#	165415
#	180523
#	193308
#	208040
#
# Disc length: 2932
#
# Revision: 1
# Processed by: cddbd v1.5.1PL0 Copyright (c) Steve Scherf et al.
# Submitted via: EasyCDDAExtractor 4.5.0.2
# Normalized: r0:TDELIM( - )
#
DISCID=da0b7210
DTITLE=x - Die Superhits der Volksmusik
DYEAR=1992
DGENRE=Volksmusik und Schlager
TTITLE0=Das goldene Edelweiss - In unserer Hand liebt unsere Erde
TTITLE1=Stefanie Hertel - Über jedes Bacherl geht a Brückerl
TTITLE2=Die Wilderer - Da müssen scho Männer kemma
TTITLE3=Orig. Naabtal Duo - Schau mir in die Augen, Herzerl
TTITLE4=Bernadette - Wir zwei hätten heiraten sollen
TTITLE5=Marianne and Michael - Als wär's das allererste Mal
TTITLE6=Angela Wiedl - Doch das Herzklopfen ... des verdank i dir
TTITLE7=Edward Simoni - Wie die Vögel im Wind
TTITLE8=zillertaler Schürzenjäger - Sierra Madre
TTITLE9=Manuela Sükar - Des mog i
TTITLE10=Jonny Hill - Zur grossen Freiheit
TTITLE11=Isarflimmern - O Heideröslein
TTITLE12=Alpentrio Tirol - Wo ist Janina
TTITLE13=Bianca - Schäfers Traum
TTITLE14=Chamer Buam - Ich war noch nie in meinem Leb'n so wie in Dich verliebt
TTITLE15=Marion and Wolfgang Thomasius - Barfuss über'n Strand
EXTD=CD von I.B.\n
EXTT0=
EXTT1=
EXTT2=
EXTT3=
EXTT4=
EXTT5=
EXTT6=
EXTT7=
EXTT8=
EXTT9=
EXTT10=
EXTT11=
EXTT12=
EXTT13=
EXTT14=
EXTT15=
PLAYORDER=
